This does not have the promos at the beginning and the end.             																										Enjoy and please share.                                                  																	TTLTTLTTLTTLTTLTTLTTLTTLTTLTTLTTLTTLTTLTTLTTLTTLTTL																																						The.Americans.S01_E09.720p.WEB-DL_TTL.mkv
Format                           : Matroska
File size                        : 1.52 GiB
Duration                         : 48mn 40s
Overall bit rate                 : 4 467 Kbps
Encoded date                     : UTC 2013-04-06 12:10:10
Writing application              : mkvmerge v2.4.0 ('Fumbling Towards Ecstasy') built on Oct 11 2008 20:13:15
Writing library                  : libebml v0.7.7 + libmatroska v0.8.1

Video
ID                               : 1
Format                           : AVC
Format/Info                      : Advanced Video Codec
Format profile                   : High@L3.1
Format settings, CABAC           : No
Format settings, ReFrames        : 2 frames
Muxing mode                      : Container profile=Unknown@3.1
Codec ID                         : V_MPEG4/ISO/AVC
Duration                         : 48mn 37s
Bit rate                         : 3 994 Kbps
Width                            : 1 280 pixels
Height                           : 718 pixels
Display aspect ratio             : 16:9
Frame rate                       : 23.976 fps
Resolution                       : 8 bits
Colorimetry                      : 4:2:0
Scan type                        : Progressive
Bits/(Pixel*Frame)               : 0.181
Stream size                      : 1.36 GiB (89%)
Language                         : English
Color primaries                  : BT.709-5, BT.1361, IEC 61966-2-4, SMPTE RP177
Transfer characteristics         : BT.709-5, BT.1361
Matrix coefficients              : BT.709-5, BT.1361, IEC 61966-2-4 709, SMPTE RP177

Audio                            : English
ID                               : 2
Format                           : AC-3
Format/Info                      : Audio Coding 3
Codec ID                         : A_AC3
Duration                         : 48mn 40s
Bit rate mode                    : Constant
Bit rate                         : 384 Kbps
Channel(s)                       : 6 channels
Channel positions                : Front: L C R, Surround: L R, LFE
Sampling rate                    : 48.0 KHz
Video delay                      : 6ms
Stream size                      : 134 MiB (9%)
Language                         : English

